{"title":"Deewane Do - Pakistani Telefilm 2016 - HQRip 720p  x264 AAC TaRa","uid":15477961,"size":540057893,"categoryP":"video","categoryS":"tv_shows","magnet":"?xt=urn:btih:650b5495a7886b55e2eb008e53ccba32da9eba31&amp;dn=Deewane+Do+-+Pakistani+Telefilm+2016+-+HQRip+720p++x264+AAC+TaRa&amp;tr=udp%3A%2F%2Ftracker.leechers-paradise.org%3A6969&amp;tr=udp%3A%2F%2Fzer0day.ch%3A1337&amp;tr=udp%3A%2F%2Fopen.demonii.com%3A1337&amp;tr=udp%3A%2F%2Ftracker.coppersurfer.tk%3A6969&amp;tr=udp%3A%2F%2Fexodus.desync.com%3A6969","seeders":0,"leechers":1,"uploader":"MdTaRa","files":1,"time":1470210206,"description":"General\r\nDeewane Do - Pakistani Telefilm 2016 - HQRip 720p  x264 AAC TaRa.mkv\r\nFormat                      : Matroska\r\nFormat version              : Version 4 / Version 2\r\nFile size                   : 515 MiB\r\nDuration                    : 1 h 20 min\r\nOverall bit rate mode       : Variable\r\nOverall bit rate            : 894 kb/s\r\n======================================================================\r\nVideo\r\nID                          : 1\r\nFormat                      : AVC\r\nFormat/Info                 : Advanced Video Codec\r\nFormat profile              :   \r\nFormat settings, CABAC      : Yes\r\nFormat settings, ReFrames   : 3 frames\r\nCodec ID                    : V_MPEG4/ISO/AVC\r\nDuration                    : 1 h 20 min\r\nBit rate mode               : Variable\r\nBit rate                    : 794 kb/s\r\nMaximum bit rate            : 40.0 Mb/s\r\nWidth                       : 1 280 pixels\r\nHeight                      : 536 pixels\r\nDisplay aspect ratio        : 2.40:1\r\nFrame rate mode             : Constant\r\nFrame rate                  : 25.000 FPS\r\nColor space                 : YUV\r\nChroma subsampling          : 4:2:0\r\nBit depth                   : 8 bits\r\nScan type                   : Progressive\r\nBits/(Pixel*Frame)          : 0.046\r\nStream size                 : 457 MiB (89%)\r\nTitle                       : .....::::: TaRa :::::.....\r\nLanguage                    : Urdu\r\nDefault                     : Yes\r\nForced                      : No\r\n========================================================================\r\nAudio\r\nID                          : 2\r\nFormat                      : AAC\r\nFormat/Info                 : Advanced Audio Codec\r\nFormat profile              : LC\r\nCodec ID                    : A_AAC\r\nDuration                    : 1 h 20 min\r\nBit rate                    : 96.0 kb/s\r\nChannel(s)                  : 2 channels\r\nChannel positions           : Front: L R\r\nSampling rate               : 44.1 kHz\r\nFrame rate                  : 43.066 FPS (1024 spf)\r\nCompression mode            : Lossy\r\nStream size                 : 56.3 MiB (11%)\r\nTitle                       : .....::::: TaRa :::::.....\r\nLanguage                    : Urdu\r\nDefault                     : Yes\r\nForced                      : No\r\n======================================================================= \nhttp://imgur.com/Ciqkpmr \nhttp://imgur.com/AxsDpzP","torrent":{"xt":"urn:btih:650b5495a7886b55e2eb008e53ccba32da9eba31","amp;dn":"Deewane+Do+-+Pakistani+Telefilm+2016+-+HQRip+720p++x264+AAC+TaRa","amp;tr":["udp%3A%2F%2Ftracker.leechers-paradise.org%3A6969","udp%3A%2F%2Fzer0day.ch%3A1337","udp%3A%2F%2Fopen.demonii.com%3A1337","udp%3A%2F%2Ftracker.coppersurfer.tk%3A6969","udp%3A%2F%2Fexodus.desync.com%3A6969"],"infoHash":"650b5495a7886b55e2eb008e53ccba32da9eba31","infoHashBuffer":{"type":"Buffer","data":[101,11,84,149,167,136,107,85,226,235,0,142,83,204,186,50,218,158,186,49]},"announce":[],"urlList":[]}}